<?xml version="1.0" encoding="UTF-8" standalone="no"?>
<!-- Created with Inkscape (http://www.inkscape.org/) -->

<svg
   xmlns:dc="http://purl.org/dc/elements/1.1/"
   xmlns:cc="http://creativecommons.org/ns#"
   xmlns:rdf="http://www.w3.org/1999/02/22-rdf-syntax-ns#"
   xmlns:svg="http://www.w3.org/2000/svg"
   xmlns="http://www.w3.org/2000/svg"
   xmlns:sodipodi="http://sodipodi.sourceforge.net/DTD/sodipodi-0.dtd"
   xmlns:inkscape="http://www.inkscape.org/namespaces/inkscape"
   id="svg3390"
   version="1.1"
   inkscape:version="0.91 r13725"
   width="392.25"
   height="230.75"
   viewBox="0 0 392.25 230.75"
   sodipodi:docname="Arrow.svg">
  <metadata
     id="metadata3396">
    <rdf:RDF>
      <cc:Work
         rdf:about="">
        <dc:format>image/svg+xml</dc:format>
        <dc:type
           rdf:resource="http://purl.org/dc/dcmitype/StillImage" />
        <dc:title></dc:title>
      </cc:Work>
    </rdf:RDF>
  </metadata>
  <defs
     id="defs3394" />
  <sodipodi:namedview
     pagecolor="#ffffff"
     bordercolor="#666666"
     borderopacity="1"
     objecttolerance="10"
     gridtolerance="10"
     guidetolerance="10"
     inkscape:pageopacity="0"
     inkscape:pageshadow="2"
     inkscape:window-width="1088"
     inkscape:window-height="806"
     id="namedview3392"
     showgrid="false"
     inkscape:zoom="1.0839248"
     inkscape:cx="300.625"
     inkscape:cy="151.76328"
     inkscape:window-x="201"
     inkscape:window-y="0"
     inkscape:window-maximized="0"
     inkscape:current-layer="svg3390" />
  <path
     style="fill:#000000"
     d="m 182.49392,192.40206 c -0.58888,-1.86315 -2.12945,-19.98421 -2.15193,-25.3125 -0.052,-12.32159 2.02013,-32.2423 3.50866,-33.73083 3.9388,-3.9388 9.22039,0.52017 12.56245,10.60583 l 2.27815,6.875 5.56127,-0.26135 c 3.12354,-0.1468 6.95903,-1.29474 8.75,-2.61884 5.17864,-3.82866 10.98225,-6.49481 14.13774,-6.49481 1.62149,0 3.95421,-0.73564 5.18381,-1.63475 2.03283,-1.48644 1.79934,-1.77161 -2.57358,-3.14331 -5.97104,-1.873 -39.0581,-7.25524 -51.68424,-8.40743 -5.15625,-0.47052 -10.89394,-1.63378 -12.75043,-2.58501 -1.85648,-0.95123 -4.9059,-1.7295 -6.77648,-1.7295 -6.00409,0 -45.79164,-8.85925 -53.07033,-11.81685 C 96.156975,108.36388 74.669726,92.90287 68.424695,85.4927 59.544654,74.9559 58.861735,72.73254 59.74793,57.24392 c 0.873054,-15.25895 2.039956,-17.69175 9.123277,-19.0206 7.797065,-1.46273 14.793068,0.47716 20.804778,5.76889 3.06583,2.69864 6.55762,6.97898 7.75955,9.51185 1.91893,4.04385 1.99386,5.40328 0.61472,11.15221 -0.86383,3.60084 -1.18046,8.10144 -0.70362,10.00132 1.28953,5.13792 8.190345,11.34473 14.532005,13.07056 3.05943,0.8326 8.93761,2.90805 13.06261,4.6121 6.97627,2.88194 23.83451,7.36209 32.5,8.63702 5.80929,0.85472 25.6127,5.17922 46.25,10.09969 26.56236,6.33316 32.70942,5.9376 29.46464,-1.89601 -2.27218,-5.48549 -7.26174,-9.65773 -16.62912,-13.90509 -8.15812,-3.69907 -14.71052,-4.92124 -14.71052,-2.74383 0,0.5871 -1.34535,2.51913 -2.98966,4.29337 -3.61693,3.90273 -7.91624,3.3204 -9.05752,-1.22683 -0.42341,-1.68699 -0.3336,-7.38539 0.19958,-12.66312 0.53319,-5.27774 1.08117,-14.09589 1.21777,-19.59589 0.13659,-5.5 0.33419,-12.6317 0.43909,-15.84821 0.29366,-9.00418 5.40986,-12.41165 11.37868,-7.5784 2.11055,1.70902 3.00275,4.422 4.00801,12.1875 1.44987,11.20013 3.37412,15.13736 8.30693,16.99691 3.21254,1.21105 8.34191,4.41192 24.19581,15.0989 3.89052,2.62256 7.55923,4.7683 8.15269,4.7683 0.59346,0 3.0353,1.61017 5.42632,3.57817 4.87598,4.01332 13.66695,8.6226 32.67629,17.13283 16.91357,7.57199 25.5101,10.539 30.53532,10.539 7.2336,0 10.51069,1.95837 10.51069,6.28114 0,8.84186 -4.98123,12.87685 -20,16.20078 -7.06195,1.56294 -35.74118,10.70929 -46.875,14.94933 -3.4375,1.30909 -9.44645,3.01695 -13.35323,3.79524 -4.24342,0.84536 -10.06367,3.32852 -14.45648,6.16772 -4.69079,3.0318 -9.58675,5.06673 -13.52178,5.62009 -11.634,1.63601 -17.81134,4.36095 -22.12509,9.75979 -6.62393,8.29011 -9.44431,10.97591 -11.52583,10.97591 -1.08408,0 -2.19329,-0.70313 -2.46492,-1.5625 z"
     id="path3400"
     inkscape:connector-curvature="0" />
</svg>
